<svg xmlns="http://www.w3.org/2000/svg" width="2400" height="1575" viewBox="0 0 2400 1575">
  <defs>
    <style>
      .cls-1 {
        fill-rule: evenodd;
      }
    </style>
  </defs>
  <path id="Color_Fill_1" data-name="Color Fill 1" class="cls-1" d="M0,0H2400V998l-92-10-121,10v-1q7.995-12.5,16-25c23.49-73.662-40.56-166.824-126-146-22.31,5.437-42.15,18.867-59,30,2.21-26.993,16.86-67.55-5-84-8.1-4.684-18.97-3.85-30-6-46.03-8.976-102.83-3.147-155-11-55.4-8.339-121.23-1-179-1-119.74,0-238.28-.173-347,14-25.37,58.331-5.45,190.26,13,244-0.33.67-.67,1.33-1,2-48.02,2.23-94.13-15.787-141-23l-56-3c-16.24,3.4-36.09,13.98-56,11-16.16-2.416-79.769,5.32-84,2-4.341-3.759-6.381-9.527-8-16-49.222,2.967-108.831,8.341-156,15l-45-5c-45.743,3.456-91.154,5.07-134,8l-4-11-76-4c-22.586,3.968-76.151,19.97-100,16q-26.5-5-53-10l-50,5-101,1-121-6-41-5c-32.919.96-60.715,15.86-87,21-0.333-.33-0.667-0.67-1-1V0ZM2111,865c25.47,3.975,51.07,35.429,57,59,4.82,19.127-13.35,41.375-21,51q-15.495,11-31,22c-14.88,5.18-96.74,6.35-114,3q4.995-20.5,10-41c17.01-25.05,28.01-11.892,30-60q10.005-9,20-18C2076.67,871.617,2093.55,872.618,2111,865Z"/>
</svg>
